<svg xmlns:x="http://ns.adobe.com/Extensibility/1.0/" xmlns:i="http://ns.adobe.com/AdobeIllustrator/10.0/" xmlns:graph="http://ns.adobe.com/Graphs/1.0/" xmlns="http://www.w3.org/2000/svg" xmlns:xlink="http://www.w3.org/1999/xlink" version="1.1" x="0px" y="0px" viewBox="0 0 100 125" enable-background="new 0 0 100 100" xml:space="preserve"><metadata><sfw xmlns="http://ns.adobe.com/SaveForWeb/1.0/"><slices/><sliceSourceBounds height="16383" width="16383" x="-8141" y="-8142" bottomLeftOrigin="true"/></sfw></metadata><g><path d="M85.625,82.749h-71.25c-1.036,0-1.875,0.84-1.875,1.875v5.156h75v-5.156C87.5,83.589,86.66,82.749,85.625,82.749z"/><path d="M21.875,40.562v35.156h-5.156c-1.036,0-1.875,0.84-1.875,1.875v2.812h70.312v-2.812c0-1.035-0.84-1.875-1.875-1.875h-5.156   V40.562H68.75v35.156H54.688V40.562h-9.375v35.156H31.25V40.562H21.875z"/><path d="M14.844,36.343c0,1.035,0.839,1.875,1.875,1.875h66.562c1.035,0,1.875-0.84,1.875-1.875v-2.812H87.5L50,10.219L12.5,33.531   h2.344V36.343z"/></g></svg>