<?xml version="1.0" encoding="utf-8"?>
<!-- Generator: Adobe Illustrator 21.0.0, SVG Export Plug-In . SVG Version: 6.00 Build 0)  -->
<svg version="1.1"
	 id="Layer_1" xmlns:cc="http://creativecommons.org/ns#" xmlns:dc="http://purl.org/dc/elements/1.1/" xmlns:inkscape="http://www.inkscape.org/namespaces/inkscape" xmlns:rdf="http://www.w3.org/1999/02/22-rdf-syntax-ns#" xmlns:sodipodi="http://sodipodi.sourceforge.net/DTD/sodipodi-0.dtd" xmlns:svg="http://www.w3.org/2000/svg"
	 xmlns="http://www.w3.org/2000/svg" xmlns:xlink="http://www.w3.org/1999/xlink" x="0px" y="0px" viewBox="0 0 86 50"
	 style="enable-background:new 0 0 86 50;" xml:space="preserve">
<style type="text/css">
	.st0{fill:#FFFFFF;}
</style>
<g transform="translate(0,-952.36218)">
	<path class="st0" d="M43,952.4l43,17l-43,17l-43-17L43,952.4z M83,972.7v11.1c-0.6-0.3-1.3-0.4-2-0.4s-1.4,0.2-2,0.4v-9.5L83,972.7
		z M70,977.8v14.5c0,4.2-12,10-27,10s-27-5.8-27-10v-14.5l26.2,10.4c0.5,0.2,1,0.2,1.5,0L70,977.8L70,977.8z M81,985.4
		c1.7,0,3,1.3,3,3c0,1.7-1.3,3-3,3s-3-1.3-3-3C78,986.7,79.3,985.4,81,985.4z"/>
</g>
</svg>
