<svg xmlns="http://www.w3.org/2000/svg" xmlns:xlink="http://www.w3.org/1999/xlink" version="1.1" x="0px" y="0px" viewBox="0 0 24 30" enable-background="new 0 0 24 24" xml:space="preserve"><g><polygon points="7,20 5,22 19,22 17.207,20  "/><path d="M7,19h2v-5h2v5h2v-5h2v5h2v-6h1v-1l-5-2.5V5.612C14,5.741,15,7.035,16,6c0-1,0-2,0-3c-1.333,1.38-2.667-1.38-4,0   c0,0.333,0,2.333,0,3v3l-6,3v1h1V19z"/><path d="M6,14H1v8h2.586L6,19.586V14z M3,18H2v-1h1V18z M3,16H2v-1h1V16z M5,18H4v-1h1V18z M5,16H4v-1h1V16z"/><path d="M18,14v5.586L20.414,22H23v-8H18z M20,18h-1v-1h1V18z M20,16h-1v-1h1V16z M22,18h-1v-1h1V18z M22,16h-1v-1h1V16z"/></g></svg>