<?xml version="1.0" standalone="no"?>
<!DOCTYPE svg PUBLIC "-//W3C//DTD SVG 20010904//EN"
 "http://www.w3.org/TR/2001/REC-SVG-20010904/DTD/svg10.dtd">
<svg version="1.0" xmlns="http://www.w3.org/2000/svg"
 width="1376.000000pt" height="1376.000000pt" viewBox="0 0 1376.000000 1376.000000"
 preserveAspectRatio="xMidYMid meet">
<metadata>
Created by potrace 1.11, written by Peter Selinger 2001-2013
</metadata>
<g transform="translate(0.000000,1376.000000) scale(0.100000,-0.100000)"
fill="#000000" stroke="none">
<path d="M6815 10850 c-27 -11 -59 -24 -70 -29 -81 -35 -160 -64 -171 -64 -8
0 -14 -4 -14 -9 0 -4 -4 -8 -10 -8 -8 0 -323 -122 -385 -149 -41 -18 -180 -73
-190 -76 -5 -1 -19 -6 -30 -10 -11 -4 -58 -23 -105 -42 -47 -18 -93 -38 -102
-43 -10 -6 -23 -10 -29 -10 -6 0 -25 -7 -42 -15 -18 -8 -68 -28 -112 -46 -113
-44 -130 -51 -130 -49 0 1 -187 -75 -220 -90 -16 -7 -47 -18 -75 -25 -3 -1
-23 -9 -45 -19 -64 -27 -77 -33 -125 -51 -25 -10 -54 -21 -65 -26 -19 -8 -65
-26 -415 -164 -80 -31 -158 -62 -175 -69 -44 -19 -149 -61 -155 -62 -5 -1 -50
-18 -80 -31 -8 -3 -17 -7 -20 -8 -10 -3 -45 -18 -80 -33 -19 -8 -37 -16 -40
-17 -25 -6 -93 -31 -125 -46 -52 -23 -627 -250 -640 -253 -5 -1 -14 -4 -20 -8
-5 -3 -53 -22 -105 -42 -52 -20 -103 -41 -112 -46 -10 -6 -22 -10 -27 -10 -5
0 -30 -9 -55 -20 -26 -11 -50 -20 -54 -21 -4 0 -13 -5 -19 -11 -7 -6 -13 -7
-13 -4 0 4 -12 0 -27 -8 -26 -13 -230 -95 -378 -151 -33 -12 -118 -46 -190
-75 -159 -64 -167 -67 -180 -70 -5 -2 -41 -16 -80 -32 -38 -17 -74 -31 -80
-32 -5 -2 -21 -8 -35 -13 -125 -52 -156 -65 -165 -67 -14 -4 -47 -16 -70 -27
-34 -15 -199 -81 -210 -83 -5 -2 -21 -8 -35 -13 -14 -6 -50 -21 -80 -32 -30
-12 -64 -25 -75 -30 -57 -25 -141 -55 -147 -53 -5 1 -8 -3 -8 -8 0 -6 -6 -10
-14 -10 -7 0 -31 -8 -52 -17 -22 -9 -41 -17 -44 -18 -7 -1 -371 -144 -395
-155 -20 -10 -434 -171 -469 -184 -11 -4 -15 -10 -10 -15 8 -7 501 -204 514
-206 3 0 11 -4 18 -8 6 -5 12 -5 12 -1 0 4 8 0 18 -9 9 -8 19 -15 22 -14 5 1
253 -94 295 -113 53 -24 181 -72 193 -73 6 0 12 -4 12 -9 0 -4 7 -8 15 -8 8 0
23 -4 33 -9 32 -17 125 -51 138 -51 8 0 14 -5 14 -12 0 -6 3 -8 7 -5 3 4 11 3
17 -1 6 -5 34 -16 61 -26 28 -10 74 -29 103 -42 29 -13 56 -24 61 -24 7 0 112
-40 156 -60 76 -34 114 -47 119 -42 3 3 6 0 6 -6 0 -7 3 -11 8 -10 4 0 16 -2
27 -7 208 -80 583 -230 591 -236 6 -5 14 -6 17 -3 3 3 16 -1 29 -10 12 -9 28
-16 35 -16 7 0 32 -9 56 -19 69 -32 121 -54 135 -57 14 -3 326 -126 380 -149
18 -8 39 -15 47 -15 8 0 15 -5 15 -12 0 -6 3 -9 6 -5 4 3 24 -3 45 -14 22 -11
39 -17 39 -14 0 3 17 -3 38 -14 20 -10 42 -20 47 -21 15 -4 58 -19 80 -30 11
-5 74 -30 140 -56 66 -25 134 -52 150 -59 37 -15 98 -39 105 -41 3 0 16 -5 30
-11 14 -6 79 -32 145 -58 149 -58 150 -59 207 -84 26 -12 54 -21 61 -21 7 0
24 -8 37 -17 14 -10 27 -17 30 -17 6 2 30 -5 55 -17 11 -4 43 -17 70 -27 28
-10 59 -23 70 -27 11 -5 22 -9 25 -10 16 -6 48 -18 65 -26 74 -32 662 -262
673 -262 6 0 12 -4 12 -9 0 -4 7 -8 15 -8 8 0 23 -4 33 -9 16 -9 51 -23 62
-25 9 -2 474 -188 531 -212 31 -13 60 -24 65 -24 5 0 20 -6 34 -13 14 -7 48
-21 75 -31 28 -10 59 -22 70 -27 28 -12 79 -31 83 -29 1 0 15 -6 30 -14 15 -8
144 -60 287 -116 143 -55 267 -105 276 -109 10 -6 46 4 110 30 52 21 99 39
104 39 6 0 22 6 37 14 14 8 43 19 65 26 21 7 43 16 48 20 6 3 33 15 60 25 28
9 64 23 80 31 45 19 159 65 170 68 6 2 23 8 38 14 16 7 30 12 31 12 2 0 21 8
42 17 22 9 41 17 44 18 3 1 19 7 35 14 17 6 50 19 75 28 25 9 50 19 55 23 6 4
39 17 75 29 36 13 79 29 95 36 17 8 66 28 110 45 44 18 89 35 100 40 11 4 63
24 115 45 52 20 109 43 125 50 17 7 53 21 80 30 28 10 55 21 60 25 6 4 46 19
90 35 44 16 83 33 86 38 3 5 9 8 13 7 9 -2 155 53 241 90 17 8 32 14 35 15 3
1 14 5 25 10 11 4 70 27 130 51 61 23 124 48 140 55 17 7 35 13 40 15 10 2
444 175 495 197 14 6 27 11 30 12 3 0 55 20 115 44 61 24 218 86 350 138 132
51 251 99 265 105 45 21 72 29 84 28 5 -1 12 2 15 7 3 5 29 17 56 27 28 10 69
26 92 37 24 10 47 19 53 19 6 0 18 4 28 9 31 16 64 29 307 124 132 52 249 98
260 102 11 5 22 9 25 10 3 1 21 9 40 17 19 9 38 14 42 12 5 -3 8 0 8 5 0 6 5
11 11 11 11 0 233 86 349 134 67 28 92 38 105 42 15 3 367 143 390 154 11 5
72 30 135 54 63 24 234 91 380 149 146 58 330 130 410 162 80 31 159 62 175
69 17 7 46 19 65 26 48 18 57 28 34 36 -44 16 -533 208 -570 225 -23 10 -66
27 -95 38 -88 32 -241 92 -279 108 -50 22 -54 23 -285 114 -115 45 -223 88
-240 95 -16 7 -73 29 -125 49 -52 20 -104 40 -115 45 -11 5 -49 20 -85 34 -36
14 -78 30 -95 37 -16 7 -32 13 -35 14 -3 1 -14 5 -25 10 -142 58 -292 115
-300 115 -6 0 -16 5 -23 12 -6 6 -19 13 -29 14 -9 2 -57 19 -107 39 -146 59
-313 126 -326 130 -3 1 -14 5 -25 10 -11 4 -65 26 -120 48 -55 21 -111 44
-125 50 -14 6 -27 11 -30 11 -7 2 -70 26 -105 41 -16 8 -50 21 -75 30 -25 9
-54 21 -65 26 -11 4 -45 18 -75 29 -30 12 -68 27 -85 34 -16 8 -68 28 -115 46
-47 17 -98 38 -115 45 -16 7 -102 41 -190 75 -88 34 -173 68 -190 75 -16 8
-57 23 -90 36 -33 12 -79 30 -102 40 -23 11 -45 19 -48 19 -4 0 -21 6 -38 14
-34 15 -66 27 -82 32 -18 5 -519 206 -555 222 -19 9 -39 17 -45 18 -10 2 -102
37 -140 53 -67 29 -151 61 -158 61 -4 -1 -20 6 -35 14 -15 8 -52 24 -82 35
-30 11 -68 26 -85 32 -16 7 -33 12 -37 11 -5 -1 -8 3 -8 8 0 6 -6 10 -13 10
-12 0 -56 16 -152 55 -11 5 -22 9 -25 9 -3 1 -15 7 -26 14 -12 6 -24 8 -28 5
-3 -3 -6 -1 -6 5 0 7 -3 11 -7 10 -13 -3 -47 9 -148 53 -36 15 -330 131 -340
133 -5 2 -21 8 -35 13 -14 6 -68 28 -120 48 -52 20 -114 46 -137 56 -24 10
-49 19 -56 19 -7 0 -18 5 -24 11 -6 6 -17 12 -24 13 -17 4 -44 14 -86 32 -53
24 -86 25 -138 4z"/>
<path d="M13225 7605 c-16 -7 -77 -32 -135 -55 -127 -50 -172 -68 -225 -90
-22 -9 -78 -32 -125 -50 -87 -34 -118 -56 -101 -73 6 -6 6 -19 1 -33 -6 -14
-6 -26 0 -29 6 -4 7 -13 1 -24 -5 -9 -6 -23 -1 -30 4 -8 4 -27 0 -42 -5 -16
-5 -29 0 -29 5 0 5 -13 0 -30 -5 -16 -5 -30 -1 -30 4 0 5 -20 1 -45 -4 -24 -3
-50 1 -56 4 -7 3 -23 -2 -36 -5 -13 -5 -23 1 -23 5 0 5 -12 0 -28 -4 -16 -4
-36 1 -45 6 -9 5 -18 0 -22 -6 -3 -7 -15 -1 -29 4 -12 4 -29 0 -36 -5 -8 -5
-21 -1 -29 5 -8 5 -27 1 -43 -5 -15 -5 -28 0 -28 5 0 5 -13 0 -30 -5 -16 -5
-30 -1 -30 5 0 5 -17 1 -38 -4 -21 -3 -48 1 -60 5 -12 4 -24 -1 -27 -7 -4 -7
-13 0 -24 5 -10 7 -21 4 -24 -9 -9 -12 -57 -3 -63 5 -2 4 -16 -1 -29 -6 -15
-6 -27 0 -30 6 -4 7 -13 1 -24 -5 -9 -6 -23 -1 -31 4 -7 6 -19 4 -25 -7 -17
-10 -105 -4 -105 7 0 3 -76 -4 -89 -4 -5 -2 -12 3 -16 7 -3 7 -15 1 -30 -5
-13 -6 -26 -1 -29 4 -3 5 -28 1 -55 -7 -52 1 -65 30 -51 12 6 77 22 185 46 62
14 271 2 307 -17 10 -5 18 -7 18 -4 0 3 23 -4 50 -14 l50 -19 1 21 c1 12 2 31
3 42 0 11 -2 30 -6 43 -4 12 -3 22 2 22 5 0 5 12 0 30 -5 17 -6 30 -2 30 9 0
7 68 -1 76 -4 4 -2 15 3 25 7 12 7 20 0 24 -6 4 -7 13 -1 23 6 11 6 24 0 34
-6 10 -5 26 1 42 5 15 6 26 0 26 -5 0 -5 12 0 30 5 18 5 30 0 30 -6 0 -5 11 0
26 7 16 7 32 0 43 -5 10 -6 21 -3 25 8 7 7 105 -1 113 -2 3 -1 16 4 29 6 14 6
26 0 29 -6 3 -6 15 0 30 6 15 6 27 0 30 -5 3 -6 15 0 29 4 12 4 29 0 36 -5 8
-5 19 0 25 5 6 5 17 0 25 -5 8 -5 21 1 31 6 11 5 20 -1 24 -6 4 -7 12 -1 23 5
9 5 26 0 39 -5 13 -4 25 1 28 6 4 7 13 1 24 -6 10 -6 23 -1 31 5 8 4 22 -1 32
-7 12 -6 18 1 18 7 0 8 6 0 19 -7 13 -7 22 0 26 6 4 7 13 1 24 -6 10 -6 23 -1
31 5 8 5 19 0 25 -5 6 -5 17 0 25 4 7 4 24 0 36 -6 14 -5 26 0 29 6 4 7 13 1
24 -6 10 -6 23 -1 31 5 8 4 22 -1 32 -7 12 -6 18 1 18 7 0 8 6 1 19 -6 10 -7
21 -4 25 8 7 7 101 -1 114 -2 4 -1 14 4 22 5 8 5 21 -1 31 -6 12 -5 20 2 25 8
4 7 9 -2 15 -18 11 -19 11 -54 -6z"/>
<path d="M2561 6789 c-5 -13 -5 -31 -1 -38 4 -8 4 -25 -1 -38 -5 -13 -4 -25 1
-28 6 -3 6 -15 0 -30 -6 -15 -6 -27 0 -30 6 -3 6 -15 0 -30 -6 -15 -6 -27 0
-30 6 -4 7 -13 1 -24 -5 -9 -6 -23 -1 -31 4 -7 4 -24 0 -36 -6 -14 -5 -26 0
-29 6 -3 6 -15 0 -30 -6 -15 -6 -27 0 -30 6 -4 7 -13 1 -24 -6 -10 -6 -23 -1
-31 5 -8 5 -21 0 -30 -5 -9 -5 -22 0 -30 4 -7 6 -18 4 -24 -7 -17 -10 -106 -4
-106 7 0 4 -90 -4 -97 -3 -3 -1 -13 4 -22 5 -10 5 -23 0 -31 -5 -8 -5 -21 0
-31 5 -9 6 -19 3 -23 -9 -8 -10 -66 -1 -66 4 0 3 -13 -2 -30 -5 -18 -5 -30 0
-30 6 0 6 -10 0 -25 -6 -15 -6 -26 0 -30 6 -4 7 -13 1 -24 -6 -10 -6 -23 -1
-31 5 -8 5 -21 0 -30 -5 -9 -5 -22 0 -30 5 -8 6 -18 3 -24 -9 -13 -9 -66 -1
-66 4 0 3 -13 -2 -30 -5 -18 -5 -30 0 -30 6 0 6 -10 0 -25 -6 -15 -6 -26 0
-30 6 -4 7 -13 1 -24 -6 -10 -6 -23 -1 -31 5 -8 5 -21 0 -30 -5 -9 -5 -22 0
-30 5 -8 6 -18 3 -24 -9 -13 -9 -66 -1 -66 4 0 3 -13 -2 -30 -5 -18 -5 -30 0
-30 6 0 6 -10 0 -25 -6 -15 -6 -26 0 -30 6 -4 7 -13 1 -24 -6 -10 -6 -23 -1
-31 5 -8 5 -21 0 -30 -5 -9 -5 -22 0 -30 5 -8 6 -18 3 -24 -9 -13 -9 -66 -1
-66 4 0 3 -13 -2 -30 -5 -18 -5 -30 0 -30 6 0 6 -10 0 -25 -6 -15 -6 -26 0
-30 6 -4 7 -13 1 -24 -6 -10 -6 -23 -1 -31 5 -8 5 -21 0 -30 -5 -9 -5 -22 0
-30 5 -8 6 -18 3 -24 -9 -13 -9 -66 -1 -66 4 0 3 -13 -2 -30 -5 -16 -6 -30 -2
-30 4 0 6 -20 5 -45 -2 -70 24 -151 78 -245 12 -21 81 -111 123 -160 23 -26
149 -137 201 -176 28 -21 52 -42 53 -46 2 -4 7 -8 12 -8 5 0 46 -25 92 -56 45
-31 92 -60 103 -65 29 -13 59 -32 67 -44 4 -5 8 -6 8 -2 0 5 12 0 28 -11 78
-56 465 -229 697 -311 50 -18 97 -35 105 -38 8 -4 17 -7 20 -7 3 -1 41 -13 85
-28 44 -14 107 -34 140 -43 33 -9 71 -21 85 -26 30 -10 200 -55 290 -76 64
-15 78 -18 92 -23 4 -1 34 -8 66 -15 56 -13 81 -19 137 -30 14 -3 36 -7 50
-10 14 -3 36 -7 50 -10 57 -11 82 -16 115 -21 19 -2 46 -7 60 -10 14 -3 41 -8
60 -10 19 -3 46 -7 60 -10 14 -3 36 -7 50 -9 62 -9 126 -19 143 -21 9 -1 18
-2 20 -4 1 -1 18 -3 37 -4 19 -2 60 -6 90 -10 30 -4 73 -9 95 -11 22 -2 40 -4
40 -5 0 -2 299 -27 440 -36 96 -7 938 -13 948 -7 5 3 52 7 106 9 54 2 122 6
152 9 30 3 86 7 124 10 39 3 89 7 113 10 23 3 61 7 85 10 23 3 65 7 92 11 175
20 208 24 229 29 12 3 39 7 61 10 22 3 49 7 60 9 11 2 40 7 65 10 25 4 63 11
84 16 22 5 44 7 48 4 4 -3 8 0 8 6 0 6 4 9 9 6 4 -3 73 8 152 25 79 16 153 31
164 33 12 1 25 5 30 8 6 3 28 9 50 12 22 4 54 11 71 16 17 6 41 13 53 15 41 9
56 13 136 35 44 12 85 23 90 24 40 10 158 47 320 102 105 36 195 66 200 68 6
2 27 10 47 20 21 9 39 16 41 16 3 0 22 8 43 17 22 9 41 17 44 18 3 1 22 9 44
18 21 9 40 17 42 17 1 0 64 29 139 65 167 79 309 158 440 244 112 73 109 71
149 106 16 14 32 25 36 25 12 0 203 190 241 240 43 56 84 129 89 158 1 4 5 12
9 17 12 15 23 64 26 118 2 27 6 51 9 54 3 3 1 13 -4 22 -5 10 -5 23 0 31 5 8
5 21 0 30 -5 9 -5 22 0 29 4 8 4 27 0 42 -5 16 -5 29 0 29 5 0 5 13 0 30 -5
17 -5 30 0 30 5 0 5 13 0 29 -4 15 -4 34 0 42 5 7 5 20 0 29 -5 9 -5 22 0 30
5 8 5 21 0 31 -5 9 -6 19 -3 23 9 8 10 66 1 66 -4 0 -3 14 2 30 5 18 5 30 0
30 -5 0 -6 10 -2 23 9 25 8 74 -1 83 -3 3 -2 17 3 30 6 14 6 26 0 29 -6 3 -6
15 0 30 6 15 6 27 0 30 -6 4 -7 13 -1 24 6 10 6 23 1 31 -5 8 -5 21 0 30 5 9
5 22 0 30 -4 7 -4 24 0 36 6 14 5 26 0 29 -6 3 -6 15 0 30 6 15 6 27 0 30 -6
4 -7 13 -1 24 6 10 6 23 1 31 -5 8 -5 21 0 30 5 9 5 22 0 30 -5 8 -5 21 0 30
5 9 5 21 2 27 -8 13 -7 81 2 90 3 3 1 13 -4 22 -5 10 -5 23 0 31 5 8 5 21 0
31 -5 9 -6 19 -3 23 9 8 10 66 1 66 -4 0 -3 14 2 30 5 18 5 30 0 30 -6 0 -6
10 0 25 6 15 6 26 0 30 -6 4 -7 13 -1 24 6 10 6 23 1 31 -5 8 -5 21 0 30 5 9
5 22 0 30 -5 8 -6 18 -3 24 9 13 9 66 1 66 -4 0 -3 14 2 30 5 18 5 30 0 30 -5
0 -6 10 -2 23 9 25 8 74 -1 83 -3 3 -2 17 3 30 6 14 6 26 0 29 -6 3 -6 15 0
30 6 15 6 27 0 30 -6 4 -7 13 -1 24 6 10 6 23 1 31 -5 8 -5 21 0 31 5 9 7 19
4 22 -8 8 -11 76 -3 79 4 2 3 13 -2 26 -7 18 -12 20 -26 13 -21 -10 -105 -46
-113 -47 -3 0 -18 -6 -35 -13 -16 -7 -59 -23 -95 -37 -36 -14 -80 -32 -99 -41
-18 -8 -39 -16 -45 -18 -14 -3 -42 -13 -91 -35 -22 -10 -134 -54 -250 -99
-115 -45 -219 -86 -230 -91 -17 -7 -50 -20 -65 -25 -3 -1 -14 -5 -25 -10 -11
-5 -162 -64 -335 -132 -173 -68 -324 -128 -335 -133 -11 -5 -94 -38 -185 -74
-91 -35 -320 -125 -510 -201 -190 -75 -370 -146 -400 -158 -30 -11 -59 -25
-65 -29 -5 -4 -15 -8 -23 -8 -8 0 -28 -7 -45 -15 -18 -7 -99 -40 -182 -73 -82
-32 -159 -62 -170 -67 -11 -5 -22 -9 -25 -9 -8 -2 -122 -48 -167 -68 -23 -10
-48 -18 -55 -18 -8 0 -18 -4 -23 -9 -6 -4 -32 -16 -60 -26 -27 -10 -55 -22
-61 -27 -6 -4 -14 -5 -17 -1 -4 3 -7 2 -7 -4 0 -5 -6 -10 -12 -10 -11 0 -136
-49 -248 -96 -14 -5 -31 -11 -38 -13 -7 -1 -33 -12 -58 -23 -24 -12 -47 -21
-50 -21 -3 0 -20 -6 -37 -14 -116 -52 -200 -42 -402 45 -11 4 -117 46 -235 93
-118 47 -229 90 -245 97 -17 7 -32 13 -35 13 -3 1 -45 18 -95 38 -228 92 -320
128 -332 128 -7 0 -13 5 -13 12 0 6 -3 9 -6 5 -4 -3 -24 3 -45 14 -22 11 -39
17 -39 13 0 -4 -6 -2 -12 3 -7 6 -31 16 -53 23 -22 7 -44 16 -50 20 -5 4 -37
17 -70 29 -33 12 -69 26 -80 31 -17 8 -69 30 -85 35 -18 6 -49 18 -70 28 -14
6 -27 11 -30 12 -3 1 -14 5 -25 10 -11 4 -49 19 -85 33 -36 13 -78 30 -95 37
-16 8 -149 60 -295 118 -146 57 -274 108 -285 112 -11 5 -22 9 -25 10 -3 1
-14 5 -25 10 -11 4 -45 18 -75 30 -30 12 -64 26 -75 30 -11 5 -22 9 -25 10 -3
1 -14 5 -25 10 -11 4 -54 21 -95 37 -41 16 -83 34 -92 39 -10 5 -22 9 -27 9
-5 0 -31 10 -58 22 -26 12 -50 22 -53 23 -3 1 -13 5 -22 8 -10 4 -26 10 -35
14 -10 3 -20 7 -23 8 -3 1 -18 7 -33 13 -16 7 -30 12 -33 12 -5 0 -92 38 -116
51 -10 5 -22 9 -28 9 -6 0 -29 8 -53 19 -23 10 -69 29 -102 41 -33 13 -73 29
-90 36 -16 7 -129 51 -250 99 -228 90 -237 93 -295 118 -19 8 -46 18 -60 22
-14 4 -31 12 -37 17 -9 8 -15 4 -22 -13z"/>
<path d="M12937 5594 c-1 -2 -22 -4 -45 -5 -24 -2 -46 -7 -48 -11 -3 -5 -9 -6
-14 -3 -5 3 -17 2 -27 -3 -10 -5 -43 -22 -73 -37 -58 -29 -180 -143 -180 -169
0 -9 -4 -16 -10 -16 -5 0 -13 -12 -16 -27 -4 -16 -11 -34 -17 -40 -5 -7 -7
-13 -3 -13 3 0 1 -12 -6 -27 -15 -39 -18 -187 -4 -247 31 -134 132 -258 255
-314 321 -147 672 61 686 408 4 78 -16 205 -34 220 -3 3 -16 25 -29 50 -29 58
-82 114 -146 155 -43 26 -107 57 -126 61 -94 16 -158 23 -163 18z"/>
</g>
</svg>
